<svg xmlns="http://www.w3.org/2000/svg" viewBox="0 0 512 512">
  <defs>
    <linearGradient id="grad1" x1="0%" y1="0%" x2="100%" y2="100%">
      <stop offset="0%" style="stop-color:#8b5cf6;stop-opacity:1" />
      <stop offset="100%" style="stop-color:#0ea5e9;stop-opacity:1" />
    </linearGradient>
    <filter id="glow">
      <feGaussianBlur stdDeviation="15" result="coloredBlur"/>
      <feMerge>
        <feMergeNode in="coloredBlur"/>
        <feMergeNode in="SourceGraphic"/>
      </feMerge>
    </filter>
  </defs>
  
  <rect width="512" height="512" rx="100" fill="#0f172a" />
  
  <g transform="translate(56, 56) scale(0.78)" filter="url(#glow)">
    <!-- Brain Circuit Design -->
    <path fill="url(#grad1)" d="M256 64C150 64 64 150 64 256s86 192 192 192 192-86 192-192S362 64 256 64zm0 344c-84 0-152-68-152-152S172 104 256 104s152 68 152 152-68 152-152 152z"/>
    <path fill="#ffffff" d="M256 144c-61.9 0-112 50.1-112 112 0 8 6.5 14.5 14.5 14.5s14.5-6.5 14.5-14.5c0-45.8 37.2-83 83-83 8 0 14.5-6.5 14.5-14.5s-6.5-14.5-14.5-14.5z"/>
    <circle cx="256" cy="256" r="30" fill="#ffffff" opacity="0.8">
      <animate attributeName="opacity" values="0.4;0.9;0.4" dur="3s" repeatCount="indefinite" />
    </circle>
    <circle cx="256" cy="256" r="50" stroke="#ffffff" stroke-width="4" fill="none" opacity="0.5">
       <animate attributeName="r" values="50;60;50" dur="3s" repeatCount="indefinite" />
       <animate attributeName="opacity" values="0.5;0;0.5" dur="3s" repeatCount="indefinite" />
    </circle>
  </g>
</svg>
